<?xml version="1.0" standalone="no"?>
<!DOCTYPE svg PUBLIC "-//W3C//DTD SVG 20010904//EN"
 "http://www.w3.org/TR/2001/REC-SVG-20010904/DTD/svg10.dtd">
<svg version="1.0" xmlns="http://www.w3.org/2000/svg"
 width="864.000000pt" height="864.000000pt" viewBox="0 0 864.000000 864.000000"
 preserveAspectRatio="xMidYMid meet">
<metadata>
Created by potrace 1.14, written by Peter Selinger 2001-2017
</metadata>
<g transform="translate(0.000000,864.000000) scale(0.100000,-0.100000)"
fill="#000000" stroke="none">
<path d="M5025 8615 c-16 -13 -36 -24 -43 -25 -7 0 -15 -7 -18 -15 -4 -8 -10
-15 -15 -15 -4 0 -76 -46 -159 -102 -84 -57 -159 -107 -167 -113 -9 -5 -67
-45 -130 -87 -63 -43 -118 -78 -123 -78 -5 0 -10 -3 -12 -7 -5 -12 -155 -113
-166 -113 -6 0 -12 -4 -14 -8 -3 -8 -84 -66 -121 -87 -9 -5 -79 -53 -156 -105
l-138 -94 0 -1254 0 -1253 43 -20 c89 -40 92 -40 135 -19 21 11 39 25 39 30 0
6 4 10 9 10 15 0 141 83 141 92 0 4 4 8 9 8 8 0 126 76 166 107 6 4 85 58 175
118 91 61 167 112 170 115 11 11 301 205 320 215 11 5 20 13 20 17 0 5 5 8 10
8 6 0 16 5 23 11 7 6 50 36 96 68 l84 57 0 1241 c0 682 -4 1246 -8 1253 -6 9
-4 11 6 5 9 -5 11 -5 4 2 -8 8 -138 63 -148 63 -1 0 -15 -11 -32 -25z"/>
<path d="M2705 7536 c-77 -52 -145 -100 -152 -105 -7 -6 -15 -11 -19 -11 -3 0
-16 -8 -29 -17 -12 -10 -31 -24 -41 -31 -227 -152 -288 -192 -296 -192 -4 0
-8 -4 -8 -8 0 -5 -12 -15 -27 -23 -16 -8 -30 -17 -33 -20 -3 -3 -54 -38 -115
-78 -60 -40 -111 -77 -113 -82 -2 -5 -8 -9 -13 -9 -12 0 -193 -121 -197 -132
-2 -4 -8 -8 -13 -8 -11 0 -72 -42 -77 -52 -2 -5 -9 -8 -16 -8 -7 0 -21 -8 -32
-18 -10 -9 -49 -37 -86 -61 l-68 -43 0 -1852 0 -1853 968 -961 c532 -529 1195
-1189 1475 -1466 l507 -505 52 102 c29 56 61 121 71 145 11 23 23 42 28 42 5
0 9 6 9 13 0 13 85 184 102 204 6 7 7 13 3 13 -4 0 -2 6 4 13 6 8 60 110 120
228 60 118 163 320 229 449 l120 235 208 143 c115 79 217 146 227 149 9 3 17
9 17 14 0 5 7 9 15 9 8 0 15 5 15 10 0 6 6 10 14 10 8 0 16 3 18 8 3 6 225
159 293 202 14 8 59 39 100 67 42 29 80 53 85 53 4 0 10 4 12 9 3 7 44 36 107
76 38 24 106 70 111 75 13 13 102 70 109 70 5 0 11 3 13 8 2 6 430 297 503
342 13 8 101 67 194 130 l170 115 1 1851 0 1851 -72 48 c-40 26 -74 52 -76 57
-2 4 -8 8 -13 8 -13 0 -133 81 -137 92 -2 4 -10 8 -18 8 -8 0 -14 5 -14 10 0
6 -4 10 -10 10 -5 0 -47 26 -93 58 -46 31 -91 62 -100 67 -69 42 -653 440
-655 447 -2 4 -8 8 -14 8 -6 0 -26 11 -44 25 -18 14 -37 25 -42 25 -6 0 -12 7
-16 15 -3 8 -10 15 -17 15 -10 0 -97 57 -109 71 -3 4 -15 9 -27 13 l-22 7 0
-973 c0 -535 0 -980 -1 -989 0 -9 -19 -29 -42 -45 -24 -16 -49 -34 -58 -41 -8
-7 -67 -46 -130 -87 -63 -42 -119 -79 -125 -84 -10 -8 -269 -182 -455 -306
-58 -38 -108 -75 -112 -80 -5 -7 -8 -7 -8 -1 0 6 -3 6 -8 0 -8 -12 -408 -283
-447 -303 -14 -7 -25 -17 -25 -21 0 -10 -45 -31 -66 -31 -9 0 -22 6 -29 13
-33 29 -45 37 -55 37 -5 0 -10 5 -10 10 0 6 -6 10 -13 10 -8 0 -22 9 -32 20
-10 11 -23 20 -28 20 -6 0 -19 7 -29 17 -10 9 -27 21 -37 27 -16 9 -66 42
-195 128 -10 7 -24 19 -32 26 -7 6 -15 12 -17 12 -3 0 -40 24 -83 53 -44 29
-169 113 -279 187 -110 74 -201 138 -203 142 -2 4 -8 8 -12 8 -11 0 -164 102
-168 113 -2 4 -10 7 -17 7 -7 0 -15 3 -17 8 -1 4 -49 37 -105 75 l-103 67 0
63 c-1 34 -1 482 -1 995 0 512 -1 932 -2 932 -1 0 -65 -42 -142 -94z"/>
</g>
</svg>
